<svg width="18" height="18" viewBox="0 0 18 18" fill="none" xmlns="http://www.w3.org/2000/svg">
<path d="M6.75 7.5V13.5C6.75 13.6989 6.82902 13.8897 6.96967 14.0303C7.11032 14.171 7.30109 14.25 7.5 14.25C7.69891 14.25 7.88968 14.171 8.03033 14.0303C8.17098 13.8897 8.25 13.6989 8.25 13.5V7.5C8.25 7.30109 8.17098 7.11032 8.03033 6.96967C7.88968 6.82902 7.69891 6.75 7.5 6.75C7.30109 6.75 7.11032 6.82902 6.96967 6.96967C6.82902 7.11032 6.75 7.30109 6.75 7.5ZM10.5 6.75C10.6989 6.75 10.8897 6.82902 11.0303 6.96967C11.171 7.11032 11.25 7.30109 11.25 7.5V13.5C11.25 13.6989 11.171 13.8897 11.0303 14.0303C10.8897 14.171 10.6989 14.25 10.5 14.25C10.3011 14.25 10.1103 14.171 9.96967 14.0303C9.82902 13.8897 9.75 13.6989 9.75 13.5V7.5C9.75 7.30109 9.82902 7.11032 9.96967 6.96967C10.1103 6.82902 10.3011 6.75 10.5 6.75ZM12 3H16.5C16.6989 3 16.8897 3.07902 17.0303 3.21967C17.171 3.36032 17.25 3.55109 17.25 3.75C17.25 3.94891 17.171 4.13968 17.0303 4.28033C16.8897 4.42098 16.6989 4.5 16.5 4.5H15.6705L14.5425 14.664C14.4406 15.5813 14.004 16.4288 13.3163 17.0443C12.6285 17.6598 11.738 18.0001 10.815 18H7.185C6.26205 18.0001 5.37148 17.6598 4.68373 17.0443C3.99599 16.4288 3.55939 15.5813 3.4575 14.664L2.328 4.5H1.5C1.30109 4.5 1.11032 4.42098 0.96967 4.28033C0.829018 4.13968 0.75 3.94891 0.75 3.75C0.75 3.55109 0.829018 3.36032 0.96967 3.21967C1.11032 3.07902 1.30109 3 1.5 3H6C6 2.20435 6.31607 1.44129 6.87868 0.87868C7.44129 0.31607 8.20435 0 9 0C9.79565 0 10.5587 0.31607 11.1213 0.87868C11.6839 1.44129 12 2.20435 12 3ZM9 1.5C8.60218 1.5 8.22064 1.65804 7.93934 1.93934C7.65804 2.22064 7.5 2.60218 7.5 3H10.5C10.5 2.60218 10.342 2.22064 10.0607 1.93934C9.77936 1.65804 9.39782 1.5 9 1.5ZM3.8385 4.5L4.9485 14.499C5.00977 15.0493 5.27179 15.5576 5.68442 15.9268C6.09705 16.296 6.63132 16.5001 7.185 16.5H10.815C11.3684 16.4997 11.9023 16.2955 12.3146 15.9263C12.727 15.5572 12.9888 15.049 13.05 14.499L14.163 4.5H3.84H3.8385Z" fill="#651159"/>
</svg>
